<svg aria-hidden="true" style="position: absolute; width: 0; height: 0; overflow: hidden;" version="1.1" xmlns="http://www.w3.org/2000/svg" xmlns:xlink="http://www.w3.org/1999/xlink">
<defs>
<symbol id="icon-twitter-3" viewBox="0 0 32 32">
<path d="M0.63 26.126c2.963 1.88 6.411 2.873 9.971 2.873 5.213 0 9.991-2.003 13.453-5.639 3.313-3.48 5.136-8.156 5.045-12.901 1.256-1.075 2.733-3.127 2.733-5.127 0-0.767-0.832-1.253-1.507-0.863-1.18 0.693-2.256 0.875-3.363 0.564-2.26-2.203-5.624-2.667-8.459-1.139-2.477 1.333-3.855 3.773-3.731 6.44-4.185-0.511-8.052-2.609-10.748-5.871-0.443-0.532-1.283-0.469-1.635 0.133-1.299 2.224-1.285 4.801-0.156 6.883-0.537 0.095-0.869 0.547-0.869 1.036 0 2.092 0.941 4.015 2.457 5.327-0.283 0.272-0.376 0.676-0.256 1.036 0.667 2.003 2.176 3.568 4.063 4.352-2.052 0.98-4.321 1.307-6.341 1.059-1.045-0.141-1.561 1.264-0.659 1.836zM10.874 23.574c0.748-0.575 0.351-1.772-0.588-1.792-1.653-0.035-3.159-0.849-4.096-2.131 0.452-0.029 0.92-0.099 1.365-0.219 1.015-0.275 0.967-1.739-0.064-1.945-1.871-0.376-3.339-1.739-3.889-3.493 0.503 0.124 1.015 0.193 1.525 0.203 1.012 0.005 1.395-1.292 0.569-1.835-1.86-1.225-2.653-3.389-2.128-5.424 3.248 3.291 7.655 5.273 12.316 5.497 0.668 0.041 1.169-0.587 1.023-1.223-0.633-2.745 0.9-4.669 2.547-5.556 1.629-0.88 4.245-1.155 6.251 0.949 0.596 0.628 2.607 0.652 3.629 0.413-0.459 0.864-1.164 1.684-1.824 2.145-0.281 0.197-0.443 0.525-0.425 0.868 0.215 4.38-1.417 8.735-4.477 11.947-3.083 3.236-7.345 5.019-12.005 5.019-1.853 0-3.671-0.301-5.388-0.883 2.053-0.397 4.004-1.267 5.66-2.541z"></path>
</symbol>
<symbol id="icon-instagram-3" viewBox="0 0 32 32">
<path d="M22 0h-12c-5.522 0-10 4.478-10 10v12c0 5.522 4.478 10 10 10h12c5.522 0 10-4.478 10-10v-12c0-5.522-4.478-10-10-10zM29 22c0 3.86-3.14 7-7 7h-12c-3.86 0-7-3.14-7-7v-12c0-3.86 3.14-7 7-7h12c3.86 0 7 3.14 7 7v12z"></path>
<path d="M16 8c-4.418 0-8 3.582-8 8s3.582 8 8 8c4.418 0 8-3.582 8-8s-3.582-8-8-8zM16 21c-2.756 0-5-2.244-5-5 0-2.758 2.244-5 5-5s5 2.242 5 5c0 2.756-2.244 5-5 5z"></path>
<path d="M24.597 8.466c0.589 0 1.066-0.477 1.066-1.066s-0.477-1.066-1.066-1.066c-0.589 0-1.066 0.477-1.066 1.066s0.477 1.066 1.066 1.066z"></path>
</symbol>
<symbol id="icon-facebook-3" viewBox="0 0 32 32">
<path d="M18.163 31.938h-5.135c-0.858 0-1.555-0.696-1.555-1.552v-11.559h-2.996c-0.858 0-1.555-0.697-1.555-1.552v-4.953c0-0.856 0.698-1.552 1.555-1.552h2.996v-2.48c0-2.459 0.774-4.552 2.237-6.050 1.47-1.506 3.525-2.301 5.942-2.301l3.916 0.006c0.856 0.001 1.553 0.698 1.553 1.552v4.599c0 0.856-0.697 1.552-1.555 1.552l-2.636 0.001c-0.804 0-1.009 0.161-1.053 0.21-0.072 0.082-0.158 0.313-0.158 0.951v1.96h3.649c0.275 0 0.541 0.068 0.77 0.195 0.493 0.275 0.8 0.795 0.8 1.358l-0.002 4.953c0 0.855-0.698 1.552-1.555 1.552h-3.661v11.559c0 0.856-0.698 1.552-1.556 1.552zM13.352 30.062h4.486v-12.075c0-0.572 0.466-1.036 1.038-1.036h4.179l0.002-4.305h-4.18c-0.572 0-1.038-0.465-1.038-1.036v-2.799c0-0.733 0.075-1.566 0.629-2.193 0.67-0.757 1.725-0.845 2.461-0.845l2.312-0.001v-3.952l-3.59-0.006c-3.884 0-6.298 2.481-6.298 6.476v3.32c0 0.571-0.466 1.036-1.038 1.036h-3.513v4.305h3.513c0.572 0 1.038 0.465 1.038 1.036v12.075zM23.564 1.82v0z"></path>
</symbol>
<symbol id="icon-burger" viewBox="0 0 80 32">
<path d="M0 0h80v4.103h-80v-4.103z"></path>
<path d="M0 12.309h80v4.103h-80v-4.103z"></path>
<path d="M0 24.615h80v4.103h-80v-4.103z"></path>
</symbol>

</defs>
</svg>
